<?xml version="1.0" encoding="UTF-8"?>
<svg id="Layer_1" data-name="Layer 1" xmlns="http://www.w3.org/2000/svg" viewBox="0 0 512 512">
  <defs>
    <style>
      .cls-1 {
        fill: #e77031;
      }

      .cls-2 {
        fill: #4ca62e;
      }

      .cls-3 {
        fill: #0e9dd4;
      }
    </style>
  </defs>
  <path class="cls-2" d="M272.7,30.98C114.89,19.11-3.93,167.49,37.48,316.14c-4,13.56-25.34,17.6-28.87,1.96C-54.03,74.67,239.36-102.94,429.53,67.55c2.69-1.98,15.45-14.34,18.13-16.86,1.94-1.84,5.69-4.39,8.12-1.89s3.14,6.63,3.78,10.04c3.39,17.94,10.18,54.4,13.24,72.27-1.15,3.47-3.24,5.16-6.65,4.27,0,0-16.36-4.26-16.36-4.26-13.18-3.38-44.18-11.06-57.01-14.44-7.99-3.26-3-8.67,1.4-12.4,4.16-4.05,10.2-10.44,14.28-14.7-36.95-34.42-84.55-54.77-135.75-58.61Z"/>
  <g>
    <path class="cls-3" d="M327.24,390.71c6.92,10.72,18.71,17.53,30.72,23.31-55.04,46.44-149.58,45.1-205.4.18,37.77-17.96,36.22-30.22,35.54-67.93-14.2-17.56-23.64-37.21-30.03-58.45-10.31-4.9-17.42-13.18-20.59-23.97-3.4-15.11-12.05-42.88,9.8-47.32-10.31-79.7,26.1-137.52,112.5-136.47,40.83.51,81.61,21.95,97.08,60.14,9.79,23.89,9.22,51.04,7.1,76.39,22.62,3.73,12.65,37.98,7.47,52.52-3.5,8.73-10.1,14.58-18.45,18.74-6.28,21.75-16.09,41.71-30.24,59.26.58,12.01-1.56,32.83,4.52,43.6Z"/>
    <path class="cls-1" d="M107.29,418.19l-5.03,5.43c69.32,64.05,176.47,75.57,259.96,32.33,81.42-44.1,127.86-129.53,118.98-220.78-.89-12.95-3.6-25.33-6.97-37.74-1.07-3.95,1.09-6.76,3.64-9.42,6.46-7.6,20.88-8.34,24.63,2.06,34.34,118.08-27.33,245.46-138.91,298.25-91.45,43.78-207.91,25.28-282.28-42.79-4.61,3.34-14.69,13.05-18.99,17.11-3.2,2.97-7.86,1.73-9.29-2.24-4.89-19.16-10.57-57.01-14.3-76.9-.32-1.82.32-4.02,1.3-5.1,1.11-1.22,3.55-2.14,5.46-1.56l20.56,6.23,48.34,11.64c4.82,1.08,10.79,4.17,6.89,9.24,0,0-14,14.23-14,14.23Z"/>
  </g>
</svg>